<svg xmlns="http://www.w3.org/2000/svg" width="144" height="144" viewBox="0 0 512 512">
  <defs>
    <linearGradient id="grad1" x1="0%" y1="0%" x2="100%" y2="100%">
      <stop offset="0%" style="stop-color:#4CAF50;stop-opacity:1" />
      <stop offset="100%" style="stop-color:#2E7D32;stop-opacity:1" />
    </linearGradient>
  </defs>
  <rect width="512" height="512" rx="80" ry="80" fill="url(#grad1)" />
  <g fill="white">
    <!-- Document Icon -->
    <path d="M170,120 h172 a20,20 0 0 1 20,20 v232 a20,20 0 0 1 -20,20 h-172 a20,20 0 0 1 -20,-20 v-232 a20,20 0 0 1 20,-20 z" fill="white" />
    <path d="M200,180 h112 a5,5 0 0 1 0,10 h-112 a5,5 0 0 1 0,-10 z" fill="#4CAF50" />
    <path d="M200,210 h112 a5,5 0 0 1 0,10 h-112 a5,5 0 0 1 0,-10 z" fill="#4CAF50" />
    <path d="M200,240 h112 a5,5 0 0 1 0,10 h-112 a5,5 0 0 1 0,-10 z" fill="#4CAF50" />
    <path d="M200,270 h70 a5,5 0 0 1 0,10 h-70 a5,5 0 0 1 0,-10 z" fill="#4CAF50" />
    
    <!-- Person Icon -->
    <circle cx="320" cy="320" r="60" fill="#FF5722" />
    <path d="M320,390 a80,80 0 0 1 80,80 h-160 a80,80 0 0 1 80,-80 z" fill="#FF5722" />
    
    <!-- Arabic Text Representation -->
    <path d="M150,350 h40 a10,10 0 0 1 0,20 h-40 a10,10 0 0 1 0,-20 z" fill="#2E7D32" />
    <path d="M120,380 h100 a10,10 0 0 1 0,20 h-100 a10,10 0 0 1 0,-20 z" fill="#2E7D32" />
  </g>
</svg>